<?xml version="1.0" encoding="utf-8"?>
<!-- Generator: Adobe Illustrator 22.0.1, SVG Export Plug-In . SVG Version: 6.00 Build 0)  -->
<svg version="1.1" id="Calque_1" xmlns="http://www.w3.org/2000/svg" xmlns:xlink="http://www.w3.org/1999/xlink" x="0px" y="0px"
	 viewBox="0 0 530 416" style="enable-background:new 0 0 530 416;" xml:space="preserve">
<style type="text/css">
	.st0{fill:none;}
	.st1{font-family:'King';}
	.st2{font-size:41.9952px;}
	.st3{font-size:34.7637px;}
</style>
<g>
	<g>
		<path d="M454.9,75.9c13.6,0,24.8,11.1,24.8,24.8v175.5c0,13.6-11.1,24.8-24.8,24.8H75.1c-13.6,0-24.7-11.1-24.7-24.8V100.6
			c0-13.6,11.1-24.8,24.7-24.8H454.9 M454.9,66.9H75.1c-18.6,0-33.8,15.2-33.8,33.8v175.5c0,18.6,15.2,33.8,33.8,33.8h379.7
			c18.6,0,33.8-15.2,33.8-33.8V100.6C488.6,82,473.4,66.9,454.9,66.9L454.9,66.9z"/>
	</g>
	<rect x="138.5" y="340.2" width="252.9" height="15.2"/>
	<path d="M339.8,325c0-5.9,2-11.3,5.3-15v-0.2H184.9v0.4c3.1,3.7,5.1,9,5.1,14.8c0,5.8-2,11.1-5.1,14.8v0.4h160.1V340
		C341.8,336.3,339.8,331,339.8,325z"/>
	<path d="M258.5,140.4H89.9c-2.8,0-5.2-2.3-5.2-5.2v0c0-2.8,2.3-5.2,5.2-5.2h168.6c2.8,0,5.2,2.3,5.2,5.2v0
		C263.7,138.1,261.3,140.4,258.5,140.4z"/>
	<path d="M196.1,162.7H89.9c-2.8,0-5.2-2.3-5.2-5.2v0c0-2.8,2.3-5.2,5.2-5.2h106.2c2.8,0,5.2,2.3,5.2,5.2v0
		C201.3,160.4,199,162.7,196.1,162.7z"/>
	<path d="M224.5,185H89.9c-2.8,0-5.2-2.3-5.2-5.2l0,0c0-2.8,2.3-5.2,5.2-5.2h134.6c2.8,0,5.2,2.3,5.2,5.2l0,0
		C229.7,182.7,227.4,185,224.5,185z"/>
	<path d="M306.1,207.3H89.9c-2.8,0-5.2-2.3-5.2-5.2v0c0-2.8,2.3-5.2,5.2-5.2h216.2c2.8,0,5.2,2.3,5.2,5.2v0
		C311.2,205,308.9,207.3,306.1,207.3z"/>
	<path d="M169,229.6H89.9c-2.8,0-5.2-2.3-5.2-5.2v0c0-2.8,2.3-5.2,5.2-5.2H169c2.8,0,5.2,2.3,5.2,5.2v0
		C174.2,227.3,171.9,229.6,169,229.6z"/>
	<path d="M260.5,162.7h-48.7c-2.8,0-5.2-2.3-5.2-5.2l0,0c0-2.8,2.3-5.2,5.2-5.2h48.7c2.8,0,5.2,2.3,5.2,5.2l0,0
		C265.7,160.4,263.4,162.7,260.5,162.7z"/>
	<text transform="matrix(1 0 0 1 78.8942 274.3158)" class="st1 st2">/&gt;</text>
	<text transform="matrix(1 0 0 1 130.5456 267.0648)" class="st1 st3">_</text>
	<g>
		<path d="M146.5,109.6H87.6c-1.6,0-2.9-1.3-2.9-2.9v-7.6c0-1.6,1.3-2.9,2.9-2.9h58.9c1.6,0,2.9,1.3,2.9,2.9v7.6
			C149.4,108.3,148.1,109.6,146.5,109.6z"/>
		<path d="M188.4,109.6h-32.6c-1.6,0-2.9-1.3-2.9-2.9v-7.6c0-1.6,1.3-2.9,2.9-2.9h32.6c1.6,0,2.9,1.3,2.9,2.9v7.6
			C191.3,108.3,190,109.6,188.4,109.6z"/>
		<path d="M208.9,109.6h-12.3c-1.6,0-2.9-1.3-2.9-2.9v-7.6c0-1.6,1.3-2.9,2.9-2.9h12.3c1.6,0,2.9,1.3,2.9,2.9v7.6
			C211.9,108.3,210.5,109.6,208.9,109.6z"/>
	</g>
	<path d="M317.9,109.6H259c-1.6,0-2.9-1.3-2.9-2.9v-7.6c0-1.6,1.3-2.9,2.9-2.9h58.9c1.6,0,2.9,1.3,2.9,2.9v7.6
		C320.8,108.3,319.5,109.6,317.9,109.6z"/>
	<path d="M250.1,109.6h-32.6c-1.6,0-2.9-1.3-2.9-2.9v-7.6c0-1.6,1.3-2.9,2.9-2.9h32.6c1.6,0,2.9,1.3,2.9,2.9v7.6
		C253,108.3,251.7,109.6,250.1,109.6z"/>
	<path d="M338.4,109.6h-12.3c-1.6,0-2.9-1.3-2.9-2.9v-7.6c0-1.6,1.3-2.9,2.9-2.9h12.3c1.6,0,2.9,1.3,2.9,2.9v7.6
		C341.3,108.3,340,109.6,338.4,109.6z"/>
</g>
</svg>
