<?xml version="1.0" encoding="utf-8"?>
<!-- Generator: Adobe Illustrator 22.0.1, SVG Export Plug-In . SVG Version: 6.00 Build 0)  -->
<svg version="1.1" id="Calque_1" xmlns="http://www.w3.org/2000/svg" xmlns:xlink="http://www.w3.org/1999/xlink" x="0px" y="0px"
	 viewBox="0 0 530 416" style="enable-background:new 0 0 530 416;" xml:space="preserve">
<style type="text/css">
	.st0{fill:none;}
</style>
<g>
	<path d="M496.6,205.6c-18.4-49.8-76.2-141.7-84.5-150.6c-8.3-9-15.4-9.1-15.4-9.1l-11.7-16.4c0,0-71-19.4-84.9-4.1
		c-18.8,17.6-25.7,16.7-28.4,17.1c-2.7,0.5-108.1,22.3-108.1,22.3l-35.3-7.4c-36,3.5-73.1,40.9-73.1,40.9l-2.8,16.7
		c-4.5,1.9-10.4,9.7-12,16.2s-10.3,57.2-13.4,82.3C12,319.8,28.5,355.5,37.5,375.7c9,20.2,43.6,30.8,51,25.9
		c7.4-4.9,0.6,3.8,36.5-47.1c35.9-50.9,35.1-45.9,45.3-54.1c10.2-8.2,188.2-38,195.3-37.5c7.1,0.5,35,19.2,52.1,29.3
		s45.4,36.6,56.5,32C524,300.7,515,255.4,496.6,205.6z M103.3,198.8C83,194.1,70.3,173.7,75,153.4s25.1-33.1,45.4-28.3
		s33.1,25.1,28.3,45.4S123.7,203.5,103.3,198.8z M179.5,269.1c-22.9-5.3-37.1-28.1-31.8-51c5.3-22.9,28.1-37.1,51-31.8
		c22.9,5.3,37.1,28.1,31.8,51C225.2,260.2,202.3,274.4,179.5,269.1z M358.3,62.9c10.1,2.3,16.4,12.4,14,22.5s-12.4,16.4-22.5,14
		c-10.1-2.3-16.4-12.4-14-22.5C338.1,66.8,348.2,60.5,358.3,62.9z M330.7,100.3c10.1,2.3,16.4,12.4,14,22.5
		c-2.3,10.1-12.4,16.4-22.5,14c-10.1-2.3-16.4-12.4-14-22.5S320.6,97.9,330.7,100.3z M305.4,237c-20.3-4.7-33.1-25.1-28.3-45.4
		c4.7-20.3,25.1-33.1,45.4-28.3s33.1,25.1,28.3,45.4C346.2,229,325.8,241.8,305.4,237z M362.4,163.8c-10.1-2.3-16.4-12.4-14-22.5
		c2.3-10.1,12.4-16.4,22.5-14c10.1,2.3,16.4,12.4,14,22.5S372.5,166.1,362.4,163.8z M388.5,124.6c-10.1-2.3-16.4-12.4-14-22.5
		s12.4-16.4,22.5-14c10.1,2.3,16.4,12.4,14,22.5S398.6,126.9,388.5,124.6z"/>
	<path d="M369.8,131.1c-7.7-1.8-15.5,3-17.3,10.8c-1.8,7.7,3,15.5,10.8,17.3c7.7,1.8,15.5-3,17.3-10.8
		C382.4,140.6,377.6,132.9,369.8,131.1z"/>
	<path d="M329.6,104.1c-7.7-1.8-15.5,3-17.3,10.8c-1.8,7.7,3,15.5,10.8,17.3c7.7,1.8,15.5-3,17.3-10.8
		C342.2,113.7,337.4,105.9,329.6,104.1z"/>
	<path d="M350.7,94.8c7.7,1.8,15.5-3,17.3-10.8c1.8-7.7-3-15.5-10.8-17.3s-15.5,3-17.3,10.8C338.1,85.3,342.9,93.1,350.7,94.8z"/>
	<path d="M395.9,91.9c-7.7-1.8-15.5,3-17.3,10.8c-1.8,7.7,3,15.5,10.8,17.3s15.5-3,17.3-10.8C408.5,101.5,403.7,93.7,395.9,91.9z"/>
	<circle cx="314" cy="200.2" r="30.4"/>
	<circle cx="111.9" cy="161.9" r="30.4"/>
	<path d="M226.2,226.2l-2.2-11.5c-0.4-1.9-2.2-3.2-4.2-2.8l-19.9,3.8c-1.9,0.4-3.8-0.9-4.2-2.8l-3.8-19.9c-0.4-1.9-2.2-3.2-4.2-2.8
		l-11.5,2.2c-1.9,0.4-3.2,2.2-2.8,4.2l3.8,19.9c0.4,1.9-0.9,3.8-2.8,4.2l-19.9,3.8c-1.9,0.4-3.2,2.2-2.8,4.2l2.2,11.5
		c0.4,1.9,2.2,3.2,4.2,2.8l19.9-3.8c1.9-0.4,3.8,0.9,4.2,2.8l3.8,19.9c0.4,1.9,2.2,3.2,4.2,2.8l11.5-2.2c1.9-0.4,3.2-2.2,2.8-4.2
		l-3.8-19.9c-0.4-1.9,0.9-3.8,2.8-4.2l19.9-3.8C225.3,230,226.6,228.1,226.2,226.2z"/>
</g>
</svg>
