<?xml version="1.0" encoding="utf-8"?>
<!-- Generator: Adobe Illustrator 22.0.1, SVG Export Plug-In . SVG Version: 6.00 Build 0)  -->
<svg version="1.1" id="Calque_1" xmlns="http://www.w3.org/2000/svg" xmlns:xlink="http://www.w3.org/1999/xlink" x="0px" y="0px"
	 viewBox="0 0 530 416" style="enable-background:new 0 0 530 416;" xml:space="preserve">
<style type="text/css">
	.st0{fill:none;}
</style>
<g>
	<path d="M193.4,171.8c9.6,5.1,14.9,10.5,15.7,16.1c0.7,5.3-2.4,10.8-9.4,16.2c-6.7,5.2-17.2,10.6-31.2,16
		c-18.4,7.2-27.5,14.7-27,22.4c0.7,9.2,15.2,19.4,41.9,29.3c17.8,6.6,35.9,11.2,42.6,12.9c-0.2-0.9-0.2-2,0.3-3.2
		c-48.4-16-70.9-29.8-68.8-42.2c1.9-11.1,22.8-18.1,44.9-25.6c22.7-7.6,46.1-15.5,46.4-27.4c0.1-5.7-4.9-10.2-8.7-13
		c-10.3-7.7-29.9-14.5-58.3-20.2c-21.3-4.3-47.6-7.9-78.2-10.8c-0.7,1.7-1.4,3.4-2,5.2c19.3,3.2,36,6.5,50.1,10
		C169.9,162,183.9,166.8,193.4,171.8z"/>
	<path d="M300.3,176.9c-13.3,11.6-24.9,36.7-35.3,53.6c-10.5,16.8-29.5,44.2-32.9,46.7c-3.3,2.5-7.2,5.8-3.9,9.4
		c0.2,0.2,0.4,0.5,0.7,0.7c-0.1-0.5-0.2-1.3,0.1-2.3c0.6-1.8,2.7-4.4,9.2-7c2.1-0.8,63.4-54.5,98.9-85.9c-0.2-0.1-0.3-0.3-0.5-0.4
		c-2.3-2.6-1.5-7.1,1.7-10c3.3-2.9,7.9-3.2,10.2-0.6c2.3,2.6,1.5,7.1-1.7,10c-2.9,2.6-6.8,3.1-9.3,1.4
		c-19.1,16.8-96.9,85.3-99.2,86.1c-6.3,2.5-8.3,5-8.9,6.7c-0.5,1.4,0,2.4,0,2.4c0,0,0.3,0.5,0.4,0.6c2.9,1.8,6.4,0.7,11-5.1
		c0,0,36.2-22.6,73.7-30.9s37-7.5,46.9-8.3s23.5,0.3,30.9-3c2.7-1.2,19.1-17.6,39.2-38.1c0.8,0.3,1.5,0.2,2.1-0.4l2.8-2.6
		c0,0,0.1-0.7-0.3-1.7c0.5-0.6,1.1-1.1,1.6-1.7c0.5,0.3,1,0.4,1.5,0.4c-2.4-37.4-16.6-71.6-39-98.9
		C357.7,130.8,303.2,173.4,300.3,176.9z"/>
	<g>
		<path d="M265,33.6c96.3,0,174.4,78.1,174.4,174.4S361.3,382.4,265,382.4S90.6,304.3,90.6,208S168.7,33.6,265,33.6 M265,25.6
			c-24.6,0-48.5,4.8-71,14.3c-21.7,9.2-41.2,22.3-58,39.1c-16.7,16.7-29.9,36.3-39.1,58c-9.5,22.5-14.3,46.4-14.3,71
			s4.8,48.5,14.3,71c9.2,21.7,22.3,41.2,39.1,58c16.7,16.7,36.3,29.9,58,39.1c22.5,9.5,46.4,14.3,71,14.3s48.5-4.8,71-14.3
			c21.7-9.2,41.2-22.3,58-39.1c16.7-16.7,29.9-36.3,39.1-58c9.5-22.5,14.3-46.4,14.3-71s-4.8-48.5-14.3-71
			c-9.2-21.7-22.3-41.2-39.1-58c-16.7-16.7-36.3-29.9-58-39.1C313.5,30.4,289.6,25.6,265,25.6L265,25.6z"/>
	</g>
</g>
</svg>
