<?xml version="1.0" encoding="utf-8"?>
<!-- Generator: Adobe Illustrator 22.0.1, SVG Export Plug-In . SVG Version: 6.00 Build 0)  -->
<svg version="1.1" id="Calque_1" xmlns="http://www.w3.org/2000/svg" xmlns:xlink="http://www.w3.org/1999/xlink" x="0px" y="0px"
	 viewBox="0 0 530 416" style="enable-background:new 0 0 530 416;" xml:space="preserve">
<style type="text/css">
	.st0{fill:none;}
</style>
<g>
	<path d="M264.8,100.9c-70.3,0-127.3,57-127.3,127.3s57,127.3,127.3,127.3s127.3-57,127.3-127.3S335.1,100.9,264.8,100.9z
		 M264.8,333.3c-58,0-105.1-47-105.1-105.1s47-105.1,105.1-105.1s105.1,47,105.1,105.1S322.8,333.3,264.8,333.3z"/>
	<path d="M268.7,158.2c-6,0-11.9,0.8-17.5,2.2c3.5-0.6,7.1-0.9,10.8-0.9c36,0,65.2,29.2,65.2,65.2c0,36-29.2,65.2-65.2,65.2
		c-26.6,0-49.5-15.9-59.6-38.8c9.5,27.5,35.6,47.3,66.3,47.3c38.7,0,70.1-31.4,70.1-70.1C338.8,189.6,307.4,158.2,268.7,158.2z"/>
	<path d="M259.4,252.4c2.2,0.5,4.5,0.6,6.6,0.5c-1.3-0.1-2.7-0.2-4.1-0.5c-13.3-2.7-21.9-15.8-19.2-29.1
		c2.7-13.3,15.8-21.9,29.1-19.2c9.8,2,17.1,9.7,19.1,18.9c-1.4-10.9-9.6-20.2-20.9-22.6c-14.3-3-28.3,6.3-31.3,20.6
		C235.8,235.4,245,249.4,259.4,252.4z"/>
	<g>
		<path d="M125.3,228.3c0-59.8,37.6-110.9,90.5-130.8H53.1c-3.2,0-5.9,2.6-5.9,5.9v250.5c0,3.2,2.6,5.9,5.9,5.9h164.8
			C164,340.5,125.3,288.9,125.3,228.3z"/>
		<path d="M476.9,97.5H314.1c52.9,19.9,90.5,70.9,90.5,130.8c0,60.6-38.6,112.2-92.6,131.5h164.8c3.2,0,5.9-2.6,5.9-5.9V103.4
			C482.8,100.2,480.2,97.5,476.9,97.5z"/>
	</g>
	<g>
		<path d="M442.5,75.1c0,5.6,0.2,10.9,0.5,15.8h11.8c0.4-4.9,0.6-10.2,0.6-15.7c0-4.5-0.1-8.7-0.4-12.8h-12.2
			C442.7,66.4,442.5,70.7,442.5,75.1z"/>
		<path d="M389.2,75.2c0-4.5-0.1-8.7-0.4-12.8h-12.2c-0.2,4-0.4,8.3-0.4,12.7c0,5.6,0.2,10.9,0.5,15.8h11.8
			C389,86,389.2,80.7,389.2,75.2z"/>
		<path d="M405.8,75.2c0-4.5-0.1-8.7-0.4-12.8h-12.2c-0.2,4-0.4,8.3-0.4,12.7c0,5.6,0.2,10.9,0.5,15.8h11.8
			C405.5,86,405.8,80.7,405.8,75.2z"/>
		<path d="M372.6,75.2c0-4.5-0.1-8.7-0.4-12.8h-12.2c-0.2,4-0.4,8.3-0.4,12.7c0,5.6,0.2,10.9,0.5,15.8H372
			C372.4,86,372.6,80.7,372.6,75.2z"/>
		<path d="M356.1,75.2c0-4.5-0.1-8.7-0.4-12.8h-3.4v28.5h3.2C355.8,86,356.1,80.7,356.1,75.2z"/>
		<path d="M422.3,75.2c0-4.5-0.1-8.7-0.4-12.8h-12.2c-0.2,4-0.4,8.3-0.4,12.7c0,5.6,0.2,10.9,0.5,15.8h11.8
			C422.1,86,422.3,80.7,422.3,75.2z"/>
		<path d="M459.5,62.4c-0.2,4-0.4,8.3-0.4,12.7c0,5.6,0.2,10.9,0.5,15.8h4.5V62.4H459.5z"/>
		<path d="M438.9,75.2c0-4.5-0.1-8.7-0.4-12.8h-12.2c-0.2,4-0.4,8.3-0.4,12.7c0,5.6,0.2,10.9,0.5,15.8h11.8
			C438.7,86,438.9,80.7,438.9,75.2z"/>
	</g>
</g>
</svg>
