<?xml version="1.0" encoding="utf-8"?>
<!-- Generator: Adobe Illustrator 22.0.1, SVG Export Plug-In . SVG Version: 6.00 Build 0)  -->
<svg version="1.1" id="Calque_1" xmlns="http://www.w3.org/2000/svg" xmlns:xlink="http://www.w3.org/1999/xlink" x="0px" y="0px"
	 viewBox="0 0 530 416" style="enable-background:new 0 0 530 416;" xml:space="preserve">
<style type="text/css">
	.st0{fill:none;}
</style>
<g>
	<path d="M303.4,233.4c25.8-69.9,51.6-139.9,77.4-209.8c-2.2-2-5.6-4.6-10.3-6.6c-5.2-2.3-10-3-13.1-3.2l-95.8,202.1
		C268.3,217.2,287.8,221.7,303.4,233.4z"/>
	<g>
		<path d="M242.2,259.4c6.3,1.1,14.3,3.1,23.1,6.8c9.1,3.8,16.3,8.4,21.6,12.3C271.9,262.6,247.6,259.8,242.2,259.4z"/>
		<path d="M287.9,275.4c4.9-13.2,9.7-26.4,14.6-39.6c-15.9-12.2-36.1-16.6-42-17.7l-18.2,38.3C248.2,256.9,272.2,259.6,287.9,275.4z
			"/>
	</g>
	<path d="M291.3,284.5c-0.7-1.3-2.2-3.5-4.4-6c-7.4-7.9-17.1-12.6-25.7-15.3c-1.3-0.4-2.6-0.8-4.1-1.2c-8.5-2.3-15.1-2.7-16-2.7
		c-3.7-0.1-7.7,0.1-11.8,0.9c-4.8,0.9-21.5,4.1-30.8,18.6c-4.7,7.4-5.6,14.7-5.8,17.1c-1.1,10.3,2.6,13.7,3.6,23.2
		c2.2,21.3-12.7,38.2-13.8,39.1c-3.5,3.1-10.2,10-22.1,13.9c19.7,1.5,53.3,0.9,86.6-16.8c23.6-12.6,33-26.2,36.6-32.4
		C286,318.8,298.7,297.7,291.3,284.5z M217,317.6c-10.9-16.9-7.3-36.2,10-42.2C207.8,289.5,217,317.6,217,317.6z"/>
</g>
</svg>
